<svg width="738" height="221" viewBox="0 0 738 221" fill="none" xmlns="http://www.w3.org/2000/svg">
<path d="M717.462 21.9725C685.021 34 699.182 35 656.228 41C615.162 56.5 582.115 52.3954 538.693 52.3954C519.74 52.3954 478.631 35.3795 460.337 31.5C443.63 27.9571 438.071 17.4806 420.921 15.3498C398.746 12.5947 376.748 8.88429 354.487 6.53331C346.105 5.64816 337.92 4.27596 329.501 3.5531C317.958 2.56204 306.12 4.13005 294.638 3.01501C275.343 1.14127 254.964 2.43552 235.494 2.43552C212.683 2.43552 189.872 2.43552 167.061 2.43552C145.465 2.43552 123.87 2.43552 102.274 2.43552C94.3895 2.43552 86.7963 1.917 79.3452 3.88423C68.7051 6.69342 57.6554 8.68431 47.3629 12.204C31.6968 17.5613 21.704 28.8516 12.1471 38.5706C6.42757 44.3871 5.07996 53.3551 4.15153 60.2185C3.46113 65.3223 2.71961 70.3867 3.21087 75.5749C4.20486 86.0721 4.21032 96.5196 4.21032 107.074C4.21032 111.666 3.92168 115.747 2.68176 120.237C1.6195 124.083 1.51846 128.061 4.44549 131.495C4.44549 131.495 2.68176 140.5 4.4454 146C2.68181 154.5 2.68178 158 4.44551 165.271C13.8224 169.043 16.709 197.324 26.5454 200.371C36.0686 203.321 82.0245 205.469 90.741 209.56C101.125 214.434 138.645 204.793 149.272 209.477C165.95 216.828 185.894 207.483 204.805 209.477C251.159 214.366 297.501 218.501 344.434 218.501C380.233 218.501 416.793 219.964 452.491 217.88C471.819 216.751 490.126 212.772 508.872 209.56C525.144 206.773 540.201 213.069 556.158 209.477C576.455 209.477 585.609 204.241 593.92 200.371C600.988 197.081 625.986 195.186 634.043 193C657.004 186.769 675.109 188.272 694.517 176C703.171 170.528 717.462 169.5 726.088 157C736 147 736 134.5 736 120C736 105.5 728.129 104.603 731.752 93C735.564 80.7913 730.018 75.1328 723.812 63.1159C721.933 59.4773 718.823 56.2259 717.462 52.3954C716.441 49.5176 716.38 45.6486 711.113 45.6486" stroke="#AC1515" stroke-width="3" stroke-linecap="round"/>
</svg>
